<svg width="131" height="24" viewBox="0 0 131 24" fill="none" xmlns="http://www.w3.org/2000/svg">
<g clip-path="url(#clip0_196_1172)">
<path d="M2.31815 0.5H0V23.5H2.31815V0.5ZM22.5949 9.8406C21.4534 8.74744 21.4569 6.97148 22.5949 5.88169L26.2267 2.40377H32.1907L24.2106 10.0458L25.612 11.3912L36.9815 0.5H16.6345L8.44719 8.34045V0.5H6.12905V23.5H8.44719V15.7739L16.5151 23.5H36.8515L22.5949 9.8406ZM12.4232 12.9317C12.3143 13.036 12.2124 13.147 12.1141 13.258C12.086 13.2882 12.0649 13.3185 12.0368 13.3522C11.9631 13.4396 11.8963 13.5304 11.8296 13.6212C11.8085 13.6515 11.7874 13.6818 11.7664 13.7121C11.6926 13.8197 11.6259 13.9273 11.5626 14.0417C11.5556 14.0551 11.5486 14.0686 11.5416 14.0787C11.3238 14.4756 11.1693 14.8994 11.0779 15.34C11.0779 15.3501 11.0744 15.3636 11.0709 15.3736C11.0569 15.4376 11.0428 15.4981 11.0323 15.562L9.43768 14.035C8.88624 13.5069 8.58066 12.8039 8.58066 12.0538C8.58066 11.3037 8.88624 10.6008 9.43768 10.0727L17.4564 2.40041H23.4203L12.4232 12.9317ZM17.3369 21.5996C17.3369 21.5996 13.6876 18.0981 13.6279 18.0241C13.6209 18.014 13.6139 18.0073 13.6068 17.9972C12.8201 17.0521 12.7639 15.7268 13.4453 14.7278C13.4453 14.7245 13.4523 14.7178 13.4558 14.711C13.5015 14.6471 13.5506 14.5832 13.5998 14.5227C13.6103 14.5092 13.6209 14.4958 13.6314 14.4823C13.6911 14.4117 13.7544 14.3444 13.8211 14.2805C13.8211 14.2805 13.8246 14.2738 13.8281 14.2738L15.4227 12.7467C15.4297 12.7938 15.4403 12.8409 15.4508 12.888C15.4614 12.9384 15.4684 12.9889 15.4789 13.0393C15.5 13.1402 15.5281 13.2378 15.5562 13.3353C15.5667 13.3723 15.5773 13.4127 15.5878 13.4497C15.6299 13.5842 15.6791 13.7154 15.7353 13.8432C15.7494 13.8735 15.7634 13.9004 15.7775 13.9307C15.8231 14.0316 15.8723 14.1291 15.925 14.2267C15.9496 14.2704 15.9742 14.3108 15.9987 14.3545C16.0479 14.4352 16.0971 14.5159 16.1498 14.5967C16.1779 14.6404 16.2095 14.6841 16.2376 14.7245C16.2938 14.8052 16.357 14.8826 16.4202 14.9599C16.4483 14.9936 16.4764 15.0306 16.508 15.0642C16.6029 15.1752 16.7047 15.2795 16.8101 15.3837L23.3044 21.603H17.3405L17.3369 21.5996ZM18.2115 14.0383C17.6601 13.5102 17.3545 12.8073 17.3545 12.0572C17.3545 11.3071 17.6601 10.6041 18.2115 10.076L19.8096 8.54563C19.9572 9.51097 20.4173 10.4393 21.1935 11.1827L32.0642 21.5996H26.1073L18.2115 14.0383Z" fill="white"/>
<path d="M48.8497 18.7473V4.51941H51.4173V10.2038H54.6767L59.9944 4.51941H62.7727V5.22239L56.9913 11.4416L62.2212 18.0443V18.7473H59.4254L54.6802 12.6794H51.4208V18.7473H48.8532H48.8497Z" fill="white"/>
<path d="M64.132 6.95799V4.51941H66.6608V6.95799H64.132ZM64.132 18.7473V8.03096H66.6608V18.7473H64.132Z" fill="white"/>
<path d="M68.4135 6.95799V4.51941H70.9424V6.95799H68.4135ZM68.4135 18.7473V8.03096H70.9424V18.7473H68.4135Z" fill="white"/>
<path d="M75.4558 18.7473C74.9676 18.7473 74.5215 18.6295 74.1141 18.3974C73.7101 18.162 73.3835 17.8526 73.1411 17.4657C72.8953 17.0789 72.7758 16.6484 72.7758 16.1809V8.01415C72.7758 7.54661 72.8988 7.11944 73.1411 6.72927C73.387 6.34246 73.7101 6.02965 74.1141 5.79756C74.518 5.56211 74.9676 5.44775 75.4558 5.44775H86.625V7.90651H75.9932C75.7859 7.90651 75.6244 7.96369 75.5014 8.07133C75.3785 8.18233 75.3188 8.34378 75.3188 8.55232V15.6461C75.3188 15.8445 75.3785 15.9992 75.5014 16.117C75.6244 16.2347 75.7859 16.2919 75.9932 16.2919H86.625V18.7506H75.4558V18.7473Z" fill="white"/>
<path d="M88.5955 18.7473V4.51941H91.1243V8.03096H97.299C97.7873 8.03096 98.2298 8.14869 98.6302 8.38077C99.0306 8.61622 99.3503 8.92231 99.5961 9.30575C99.842 9.6892 99.9614 10.113 99.9614 10.5805V18.7473H97.4325V10.6747C97.4325 10.6142 97.4114 10.5604 97.3658 10.5166C97.3201 10.4729 97.2674 10.4527 97.2007 10.4527H91.3562C91.2929 10.4527 91.2367 10.4729 91.1911 10.5166C91.1454 10.5604 91.1243 10.6108 91.1243 10.6747V18.7473H88.5955Z" fill="white"/>
<path d="M104.145 18.7473C103.656 18.7473 103.21 18.6296 102.803 18.3975C102.399 18.162 102.076 17.856 101.837 17.4725C101.598 17.0924 101.479 16.6653 101.479 16.1977V12.1715H110.316V10.6748C110.316 10.6142 110.295 10.5604 110.249 10.5167C110.203 10.4729 110.151 10.4528 110.084 10.4528H101.479V8.03101H110.179C110.667 8.03101 111.113 8.14873 111.521 8.38082C111.924 8.61627 112.248 8.92235 112.486 9.30579C112.725 9.68924 112.845 10.113 112.845 10.5806V18.7473H104.145ZM104.243 16.3255H110.319V14.3478H104.011V16.1035C104.011 16.1641 104.032 16.2179 104.078 16.2616C104.124 16.3054 104.176 16.3255 104.243 16.3255Z" fill="white"/>
<path d="M114.871 6.95799V4.51941H117.4V6.95799H114.871ZM114.871 18.7473V8.03096H117.4V18.7473H114.871Z" fill="white"/>
<path d="M119.638 18.7473V8.03101H128.338C128.826 8.03101 129.272 8.14873 129.679 8.38082C130.083 8.61627 130.406 8.92235 130.645 9.30579C130.884 9.68924 131.004 10.113 131.004 10.5806V18.7473H128.475V10.6748C128.475 10.6142 128.454 10.5604 128.408 10.5167C128.362 10.4729 128.31 10.4528 128.243 10.4528H122.398C122.335 10.4528 122.279 10.4729 122.233 10.5167C122.188 10.5604 122.166 10.6109 122.166 10.6748V18.7473H119.638Z" fill="white"/>
</g>
<defs>
<clipPath id="clip0_196_1172">
<rect width="131" height="23" fill="white" transform="translate(0 0.5)"/>
</clipPath>
</defs>
</svg>
