<svg width="91" height="77" viewBox="0 0 91 77" fill="none" xmlns="http://www.w3.org/2000/svg">
    <path
        d="M0.5 64.4131H2.36969V69.7132C4.22743 68.2814 6.03938 67.0542 7.64027 65.5967C8.94646 64.4072 10.3622 64.2821 12.0845 64.5025C10.4418 65.7754 8.87677 66.9867 7.28186 68.2239C11.4513 70.2136 12.4051 71.8876 11.9192 76.3279H10.179C10.179 75.5792 10.183 74.8683 10.179 74.1554C10.1611 71.7169 8.49248 70.1501 6.04735 70.0289C4.3708 69.9455 3.59425 71.2343 2.46726 71.9949C2.35774 72.0683 2.37566 72.3642 2.37566 72.5549C2.3677 73.6192 2.35177 74.6836 2.38164 75.746C2.39358 76.2226 2.25619 76.443 1.75442 76.3855C1.33827 76.3378 0.920133 76.3219 0.501991 76.2921C0.501991 72.3325 0.501991 68.3728 0.501991 64.4111L0.5 64.4131Z"
        fill="black" />
    <path
        d="M15.5213 58.138V0.0098877H21.0348V20.0346C21.3932 19.701 21.5982 19.5183 21.7934 19.3237C27.9978 13.1479 34.2022 6.97207 40.3967 0.786332C40.7511 0.432861 41.0936 0.242225 41.6193 0.242225C57.5743 0.256126 73.5275 0.25414 89.4825 0.25414C89.6757 0.25414 89.8688 0.25414 89.9843 0.25414C80.8867 9.3153 71.7772 18.3844 62.7394 27.386C61.7518 26.401 60.6567 25.3069 59.4898 24.1432C65.764 17.9019 72.1655 11.5354 78.6885 5.04784C78.2783 5.026 78.0673 5.00415 77.8562 5.00415C73.5314 5.00415 69.2086 4.99025 64.8839 5.02401C64.4936 5.02798 64.0078 5.22457 63.731 5.49663C60.9513 8.22312 58.2016 10.9794 55.4518 13.7357C52.5985 16.5972 52.5666 20.9044 55.4 23.7957C57.4131 25.849 59.4719 27.8606 61.5089 29.8901C70.7319 39.0803 79.9529 48.2706 89.1819 57.4568C89.373 57.6475 89.6239 57.7746 89.8469 57.9334C89.8051 58.0069 89.7633 58.0824 89.7195 58.1558C89.4905 58.1697 89.2615 58.1975 89.0325 58.1975C73.1272 58.1995 57.2239 58.1975 41.3186 58.2094C40.8009 58.2094 40.4485 58.0426 40.0901 57.6832C33.9673 51.565 27.8325 45.4607 21.6998 39.3544C21.5445 39.1995 21.3792 39.0545 21.1005 38.7964V58.1419H15.5173L15.5213 58.138ZM57.3991 5.28613C57.3334 5.2067 57.2657 5.12926 57.2 5.04982C57.1542 5.03394 57.1104 5.00614 57.0646 5.00415C52.4949 5.00018 47.9252 4.99224 43.3555 5.01607C43.0808 5.01607 42.7463 5.2067 42.5412 5.40925C36.1914 11.7122 29.8416 18.017 23.5197 24.3477C20.6365 27.2331 20.6863 31.5701 23.5695 34.4534C24.5332 35.4165 25.5029 36.3757 26.4686 37.3368C26.7374 37.6049 27.0082 37.871 27.3109 38.1669C27.3965 37.9981 27.4463 37.9385 27.4582 37.871C27.9221 35.2438 29.2224 33.0892 31.104 31.2186C39.652 22.7313 48.1781 14.2242 56.7201 5.72897C56.9073 5.5423 57.1721 5.42911 57.3991 5.28216V5.28613ZM48.6102 20.4437C47.2423 21.8377 45.9799 23.0927 44.7553 24.3815C41.912 27.3781 41.9578 31.578 44.8788 34.4951C51.0553 40.663 57.2418 46.8209 63.4463 52.961C63.723 53.235 64.2069 53.4396 64.5951 53.4435C68.9179 53.4773 73.2427 53.4654 77.5655 53.4634C77.7766 53.4634 77.9856 53.4376 78.3241 53.4138C78.0573 53.1318 77.8841 52.9352 77.6969 52.7505C69.1609 44.2414 60.6288 35.7323 52.0867 27.2311C50.4998 25.6524 49.4345 23.7917 48.881 21.6332C48.7974 21.3095 48.7317 20.9818 48.6102 20.4417V20.4437ZM56.9292 53.4654L57.1005 53.1933C56.8774 53.0384 56.6246 52.9153 56.4354 52.7267C51.4217 47.7463 46.406 42.7679 41.4221 37.7578C40.6954 37.027 40.0104 36.1969 39.5345 35.2934C38.8655 34.0245 38.4115 32.6464 37.8182 31.1987C36.287 32.831 34.5367 34.37 33.1967 36.2049C31.2553 38.8619 31.779 42.5793 34.1086 44.9086C36.7907 47.5914 39.4808 50.2663 42.1489 52.965C42.5113 53.3304 42.8717 53.4773 43.3834 53.4753C47.6564 53.4575 51.9314 53.4654 56.2044 53.4654C56.4474 53.4654 56.6903 53.4654 56.9332 53.4654H56.9292Z"
        fill="black" />
    <path d="M0.691162 0H6.13497V58.1281H0.691162V0Z" fill="black" />
    <path
        d="M90.5 64.4825C90.5 64.7725 90.5 65.0624 90.5 65.3523C90.5 68.7123 90.5 72.0703 90.5 75.4302C90.5 76.0683 90.1781 76.3867 89.5343 76.3854C89.2695 76.3854 89.0047 76.3854 88.706 76.3854V64.4845H90.5V64.4825Z"
        fill="black" />
    <path d="M44.6856 64.4508H46.3622V76.3338H44.6856V64.4508Z" fill="black" />
</svg>
    